# xmcd
# Copyright (C) 1995-1998 Ti Kan
#
# Track frame offsets:
#       150
#       16984
#       35167
#       53107
#       74176
#       87004
#       100723
#       124452
#       140286
#       155356
#       177297
#
# Disc length: 2661 seconds
#
# Revision: 0
# Processed by: cddbd v1.5.2PL0 Copyright (c) Steve Scherf et al.
# Submitted via: CD-Import v1.0
#
DISCID=960a630b
DTITLE=Masha Qrella - Speak Low
DYEAR=09
DGENRE=
TTITLE0=I Talk To The Trees
TTITLE1=My Ship
TTITLE2=Speak Low
TTITLE3=One Life To Live
TTITLE4=On The Street Where You Live
TTITLE5=Drunken Scene
TTITLE6=Wandering Star
TTITLE7=I'm A Stranger Here Myself
TTITLE8=Little Prince
TTITLE9=September Song
TTITLE10=Saga Of Jenny
EXTD=
EXTT0=
EXTT1=
EXTT2=
EXTT3=
EXTT4=
EXTT5=
EXTT6=
EXTT7=
EXTT8=
EXTT9=
EXTT10=
PLAYORDER=
